<svg width="144" height="100" viewBox="0 0 144 100" fill="none" xmlns="http://www.w3.org/2000/svg">
<path fill-rule="evenodd" clip-rule="evenodd" d="M26 0H126V41.254C123.48 40.4398 120.791 40 118 40C103.641 40 92 51.6406 92 66C92 80.3594 103.641 92 118 92C120.791 92 123.48 91.5602 126 90.746V100H26V60C40.3594 60 52 48.3594 52 34C52 19.6406 40.3594 8 26 8V0ZM26 8C11.6406 8 0 19.6406 0 34C0 48.3594 11.6406 60 26 60V8ZM126 90.746C136.445 87.3718 144 77.5682 144 66C144 54.4318 136.445 44.6282 126 41.254V90.746Z" fill="white"/>
</svg>
