<svg width="28" height="28" viewBox="0 0 28 28" fill="none" xmlns="http://www.w3.org/2000/svg">
<path d="M25.6669 8.44685C25.6677 8.29331 25.6383 8.1411 25.5803 7.99896C25.5222 7.85681 25.4366 7.72753 25.3285 7.61852L20.3818 2.67185C20.2728 2.56372 20.1436 2.47817 20.0014 2.42012C19.8593 2.36206 19.7071 2.33263 19.5535 2.33352C19.4 2.33263 19.2478 2.36206 19.1056 2.42012C18.9635 2.47817 18.8342 2.56372 18.7252 2.67185L15.4235 5.97352L2.67185 18.7252C2.56372 18.8342 2.47817 18.9635 2.42012 19.1056C2.36206 19.2478 2.33263 19.4 2.33352 19.5535V24.5002C2.33352 24.8096 2.45643 25.1063 2.67522 25.3251C2.89402 25.5439 3.19076 25.6668 3.50018 25.6668H8.44685C8.6101 25.6757 8.77339 25.6502 8.92614 25.5919C9.07889 25.5336 9.21768 25.4439 9.33352 25.3285L22.0152 12.5768L25.3285 9.33352C25.435 9.22044 25.5218 9.0903 25.5852 8.94852C25.5964 8.85552 25.5964 8.76151 25.5852 8.66852C25.5906 8.61421 25.5906 8.55949 25.5852 8.50518L25.6669 8.44685ZM7.96852 23.3335H4.66685V20.0318L16.2519 8.44685L19.5535 11.7485L7.96852 23.3335ZM21.1985 10.1035L17.8969 6.80185L19.5535 5.15685L22.8435 8.44685L21.1985 10.1035Z" fill="white"/>
</svg>
